<svg preserveAspectRatio="none" width="100%" height="100%" overflow="visible" style="display: block;" viewBox="0 0 40 40" fill="none" xmlns="http://www.w3.org/2000/svg">
<g id="brightness_5">
<mask id="mask0_0_880" style="mask-type:alpha" maskUnits="userSpaceOnUse" x="0" y="0" width="40" height="40">
<rect id="Bounding box" width="40" height="40" fill="var(--fill-0, #D9D9D9)"/>
</mask>
<g mask="url(#mask0_0_880)">
<path id="brightness_5_2" d="M20.0279 38.8054L14.4167 33.3333H6.66667V25.5833L1.11125 20L6.66667 14.4167V6.66667H14.4167L20.0279 1.11125L25.5833 6.66667H33.3333V14.4167L38.8888 20L33.3333 25.5833V33.3333H25.5833L20.0279 38.8054ZM25.8263 25.7708C27.4235 24.1736 28.2221 22.2407 28.2221 19.9721C28.2221 17.7037 27.4235 15.771 25.8263 14.1737C24.229 12.5765 22.2963 11.7779 20.0279 11.7779C17.7593 11.7779 15.8264 12.5765 14.2292 14.1737C12.6319 15.771 11.8333 17.7037 11.8333 19.9721C11.8333 22.2407 12.6319 24.1736 14.2292 25.7708C15.8264 27.3681 17.7593 28.1667 20.0279 28.1667C22.2963 28.1667 24.229 27.3681 25.8263 25.7708ZM20.0279 34.9167L24.4167 30.5554H30.5554V24.4167L34.9721 20L30.5554 15.5833V9.44458H24.4167L20.0279 5.02792L15.5833 9.44458H9.44458V15.5833L5.02792 20L9.44458 24.4167V30.5554H15.5554L20.0279 34.9167Z" fill="var(--fill-0, #1E4D52)"/>
</g>
</g>
</svg>
