<svg preserveAspectRatio="none" width="100%" height="100%" overflow="visible" style="display: block;" viewBox="0 0 20 20" fill="none" xmlns="http://www.w3.org/2000/svg">
<g id="headphones">
<mask id="mask0_0_451" style="mask-type:alpha" maskUnits="userSpaceOnUse" x="0" y="0" width="20" height="20">
<rect id="Bounding box" width="20" height="20" fill="var(--fill-0, #D9D9D9)"/>
</mask>
<g mask="url(#mask0_0_451)">
<path id="headphones_2" d="M8 17H4.5C4.09722 17 3.74653 16.8507 3.44792 16.5521C3.14931 16.2535 3 15.9028 3 15.5V10C3 9.02778 3.18542 8.11715 3.55625 7.26812C3.92708 6.41896 4.42806 5.68007 5.05917 5.05146C5.69014 4.42271 6.43181 3.92361 7.28417 3.55417C8.13639 3.18472 9.04514 3 10.0104 3C10.9757 3 11.8828 3.18472 12.7319 3.55417C13.581 3.92361 14.3199 4.42271 14.9485 5.05146C15.5773 5.68007 16.0764 6.41896 16.4458 7.26812C16.8153 8.11715 17 9.02778 17 10V15.5C17 15.9028 16.8531 16.2535 16.5594 16.5521C16.2656 16.8507 15.9125 17 15.5 17H12V11H15.5V10C15.5 8.46792 14.9668 7.16819 13.9004 6.10083C12.834 5.03361 11.5354 4.5 10.0046 4.5C8.47375 4.5 7.17361 5.03361 6.10417 6.10083C5.03472 7.16819 4.5 8.46792 4.5 10V11H8V17ZM6.5 12.5H4.5V15.5H6.5V12.5ZM13.5 12.5V15.5H15.5V12.5H13.5Z" fill="var(--fill-0, white)"/>
</g>
</g>
</svg>
