<svg preserveAspectRatio="none" width="100%" height="100%" overflow="visible" style="display: block;" viewBox="0 0 20 20" fill="none" xmlns="http://www.w3.org/2000/svg">
<g id="clean_hands">
<mask id="mask0_0_410" style="mask-type:alpha" maskUnits="userSpaceOnUse" x="0" y="0" width="20" height="20">
<rect id="Bounding box" width="20" height="20" fill="var(--fill-0, #D9D9D9)"/>
</mask>
<g mask="url(#mask0_0_410)">
<path id="clean_hands_2" d="M6 15.25L11.5 16.9375L16.3958 15.4375C16.2847 15.1458 16.1015 14.9167 15.846 14.75C15.5908 14.5833 15.3018 14.5 14.9792 14.5H10.5833C10.3472 14.5 10.1111 14.4826 9.875 14.4479C9.63889 14.4132 9.40972 14.3542 9.1875 14.2708L7.77083 13.7292L8.22917 12.2917L9.6875 12.8333C9.84028 12.8889 9.98958 12.9306 10.1354 12.9583C10.2813 12.9861 10.4306 13 10.5833 13H12.5C12.5 12.8611 12.4653 12.7431 12.3958 12.6458C12.3264 12.5486 12.2222 12.4722 12.0833 12.4167L6.75 10.5H6V15.25ZM1 18V9H6.70833C6.81944 9 6.92361 9.01042 7.02083 9.03125C7.11806 9.05208 7.21215 9.07715 7.30312 9.10646L12.6458 11.0208C13.0625 11.1736 13.3924 11.4323 13.6354 11.7969C13.8785 12.1615 14 12.5625 14 13H14.9792C15.8183 13 16.5316 13.2917 17.119 13.875C17.7063 14.4583 18 15.1667 18 16V16.5L11.5208 18.5L6 16.8125V18H1ZM2.5 16.5H4.5V10.5H2.5V16.5ZM13 9.54167L11.4792 9C11.4097 8.27778 11.1215 7.68056 10.6146 7.20833C10.1076 6.73611 9.48611 6.5 8.75 6.5C8.34722 6.5 7.95833 6.59028 7.58333 6.77083C7.20833 6.95139 6.89583 7.19444 6.64583 7.5H4.89583C5.17361 6.86111 5.59028 6.32986 6.14583 5.90625C6.70139 5.48264 7.31944 5.20833 8 5.08333V3.50417H7V2H11.0208C11.4653 2 11.8958 2.06944 12.3125 2.20833C12.7292 2.34722 13.125 2.55556 13.5 2.83333L12.3125 3.875C12.1181 3.76389 11.9132 3.67361 11.6979 3.60417C11.4826 3.53472 11.2569 3.5 11.0208 3.5H9.5V5.08333C10.5 5.25 11.3333 5.72917 12 6.52083C12.6667 7.3125 13 8.22222 13 9.25V9.54167ZM14.5104 8.48604C14.1701 8.14326 14 7.73125 14 7.25C14 6.94444 14.1458 6.5 14.4375 5.91667C14.7292 5.33333 15.1667 4.61111 15.75 3.75C16.3472 4.63889 16.7882 5.37153 17.0729 5.94792C17.3576 6.52431 17.5 6.95833 17.5 7.25C17.5 7.73125 17.3281 8.14326 16.9844 8.48604C16.6406 8.82868 16.2274 9 15.7448 9C15.2622 9 14.8507 8.82868 14.5104 8.48604Z" fill="var(--fill-0, #1C1B1F)"/>
</g>
</g>
</svg>
