<svg preserveAspectRatio="none" width="100%" height="100%" overflow="visible" style="display: block;" viewBox="0 0 20 20" fill="none" xmlns="http://www.w3.org/2000/svg">
<g id="wheat">
<mask id="mask0_0_332" style="mask-type:alpha" maskUnits="userSpaceOnUse" x="0" y="0" width="20" height="20">
<rect id="Bounding box" width="20" height="20" fill="var(--fill-0, #D9D9D9)"/>
</mask>
<g mask="url(#mask0_0_332)">
<path id="wheat_2" d="M2.875 18.3333L1.6875 17.1458L3.70833 15.125C3.30556 14.7222 3.00347 14.2639 2.80208 13.75C2.60069 13.2361 2.5 12.7014 2.5 12.1458C2.5 11.5764 2.60417 11.0417 2.8125 10.5417C3.02083 10.0417 3.31944 9.59722 3.70833 9.20833L4.89583 8.04167L5.47917 8.625C5.54861 8.18056 5.68056 7.75694 5.875 7.35417C6.06944 6.95139 6.32639 6.59028 6.64583 6.27083L7.83333 5.10417L8.41667 5.6875C8.48611 5.24306 8.62153 4.81944 8.82292 4.41667C9.02431 4.01389 9.28472 3.65278 9.60417 3.33333L11.9792 0.979166L13.1458 2.14583L11.9792 3.33333C12.2986 3.65278 12.5556 4.01389 12.75 4.41667C12.9444 4.81944 13.0764 5.24306 13.1458 5.6875L17.1667 1.66667L18.3333 2.85417L14.3333 6.875C14.7778 6.94444 15.2014 7.07639 15.6042 7.27083C16.0069 7.46528 16.3681 7.72222 16.6875 8.04167L17.8542 6.85417L19.0417 8.04167L16.7083 10.3958C16.3889 10.7292 16.0208 10.9965 15.6042 11.1979C15.1875 11.3993 14.7569 11.5347 14.3125 11.6042L14.8958 12.1667L13.7292 13.3333C13.4097 13.6528 13.0451 13.9132 12.6354 14.1146C12.2257 14.316 11.7986 14.4514 11.3542 14.5208L11.9583 15.1042L10.7708 16.2917C10.3681 16.6944 9.91319 16.9965 9.40625 17.1979C8.89931 17.3993 8.36806 17.5 7.8125 17.5C7.34028 17.5 6.86458 17.3993 6.38542 17.1979C5.90625 16.9965 5.41667 16.6875 4.91667 16.2708L2.875 18.3333ZM4.89583 13.9167C5.13194 13.6806 5.3125 13.4132 5.4375 13.1146C5.5625 12.816 5.625 12.5 5.625 12.1667C5.625 11.8472 5.5625 11.5313 5.4375 11.2188C5.3125 10.9063 5.13194 10.6319 4.89583 10.3958C4.65972 10.6319 4.47569 10.9063 4.34375 11.2188C4.21181 11.5313 4.14583 11.8472 4.14583 12.1667C4.14583 12.5 4.21181 12.816 4.34375 13.1146C4.47569 13.4132 4.65972 13.6806 4.89583 13.9167ZM7.83333 15.8542C8.16667 15.8403 8.48611 15.7708 8.79167 15.6458C9.09722 15.5208 9.36806 15.3403 9.60417 15.1042C9.36806 14.8681 9.09375 14.6875 8.78125 14.5625C8.46875 14.4375 8.15278 14.375 7.83333 14.375C7.51389 14.375 7.19792 14.441 6.88542 14.5729C6.57292 14.7049 6.29861 14.8889 6.0625 15.125C6.29861 15.3611 6.56944 15.5417 6.875 15.6667C7.18056 15.7917 7.5 15.8542 7.83333 15.8542ZM7.83333 10.9792C8.06944 10.7431 8.25 10.4722 8.375 10.1667C8.5 9.86111 8.5625 9.54861 8.5625 9.22917C8.5625 8.89583 8.5 8.57639 8.375 8.27083C8.25 7.96528 8.06944 7.69444 7.83333 7.45833C7.59722 7.69444 7.41319 7.96528 7.28125 8.27083C7.14931 8.57639 7.08333 8.89583 7.08333 9.22917C7.08333 9.54861 7.14931 9.86111 7.28125 10.1667C7.41319 10.4722 7.59722 10.7431 7.83333 10.9792ZM10.7917 12.9167C11.125 12.9167 11.441 12.8507 11.7396 12.7188C12.0382 12.5868 12.3056 12.4028 12.5417 12.1667C12.3056 11.9306 12.0382 11.75 11.7396 11.625C11.441 11.5 11.125 11.4375 10.7917 11.4375C10.4583 11.4375 10.1389 11.5035 9.83333 11.6354C9.52778 11.7674 9.25694 11.9514 9.02083 12.1875C9.25694 12.4236 9.52778 12.6042 9.83333 12.7292C10.1389 12.8542 10.4583 12.9167 10.7917 12.9167ZM10.7917 8.04167C11.0278 7.80556 11.2049 7.53472 11.3229 7.22917C11.441 6.92361 11.5 6.60417 11.5 6.27083C11.5 5.95139 11.441 5.63542 11.3229 5.32292C11.2049 5.01042 11.0278 4.73611 10.7917 4.5C10.5556 4.73611 10.3715 5.01042 10.2396 5.32292C10.1076 5.63542 10.0417 5.95139 10.0417 6.27083C10.0417 6.60417 10.1076 6.92361 10.2396 7.22917C10.3715 7.53472 10.5556 7.80556 10.7917 8.04167ZM13.7292 9.95833C14.0486 9.95833 14.3646 9.89236 14.6771 9.76042C14.9896 9.62847 15.2639 9.44444 15.5 9.20833C15.25 8.97222 14.9687 8.79167 14.6562 8.66667C14.3437 8.54167 14.0278 8.47917 13.7083 8.47917C13.3889 8.49306 13.0764 8.5625 12.7708 8.6875C12.4653 8.8125 12.1944 8.99306 11.9583 9.22917C12.1944 9.46528 12.4687 9.64931 12.7812 9.78125C13.0937 9.91319 13.4097 9.97222 13.7292 9.95833Z" fill="var(--fill-0, #1C1B1F)"/>
</g>
</g>
</svg>
