<svg preserveAspectRatio="none" width="100%" height="100%" overflow="visible" style="display: block;" viewBox="0 0 20 20" fill="none" xmlns="http://www.w3.org/2000/svg">
<g id="agriculture">
<mask id="mask0_0_397" style="mask-type:alpha" maskUnits="userSpaceOnUse" x="0" y="0" width="20" height="20">
<rect id="Bounding box" width="20" height="20" fill="var(--fill-0, #D9D9D9)"/>
</mask>
<g mask="url(#mask0_0_397)">
<path id="agriculture_2" d="M3.25 7C3.0375 7 2.85937 6.92854 2.71562 6.78563C2.57187 6.64271 2.5 6.46563 2.5 6.25438C2.5 6.04313 2.57187 5.86458 2.71562 5.71875C2.85937 5.57292 3.0375 5.5 3.25 5.5H6.5C6.76931 5.5 6.99979 5.59722 7.19146 5.79167C7.38326 5.98611 7.48611 6.22222 7.5 6.5V7H3.25ZM5.01479 14.5C5.71326 14.5 6.30556 14.2529 6.79167 13.7588C7.27778 13.2644 7.52083 12.6643 7.52083 11.9583C7.52083 11.2754 7.27778 10.695 6.79167 10.2171C6.30556 9.73903 5.70833 9.5 5 9.5C4.29167 9.5 3.69792 9.73903 3.21875 10.2171C2.73958 10.695 2.5 11.2754 2.5 11.9583C2.5 12.6643 2.74451 13.2644 3.23354 13.7588C3.72243 14.2529 4.31618 14.5 5.01479 14.5ZM17.0625 14.0625C17.3542 13.7708 17.5 13.4167 17.5 13C17.5 12.5833 17.3542 12.2292 17.0625 11.9375C16.7708 11.6458 16.4167 11.5 16 11.5C15.5833 11.5 15.2292 11.6458 14.9375 11.9375C14.6458 12.2292 14.5 12.5833 14.5 13C14.5 13.4167 14.6458 13.7708 14.9375 14.0625C15.2292 14.3542 15.5833 14.5 16 14.5C16.4167 14.5 16.7708 14.3542 17.0625 14.0625ZM5 13C4.72222 13 4.48611 12.9028 4.29167 12.7083C4.09722 12.5139 4 12.2778 4 12C4 11.7222 4.09722 11.4861 4.29167 11.2917C4.48611 11.0972 4.72222 11 5 11C5.27778 11 5.51389 11.0972 5.70833 11.2917C5.90278 11.4861 6 11.7222 6 12C6 12.2778 5.90278 12.5139 5.70833 12.7083C5.51389 12.9028 5.27778 13 5 13ZM16.5 10.0417C16.7778 10.0833 17.0486 10.1667 17.3125 10.2917C17.5764 10.4167 17.8056 10.5764 18 10.7708V6.5C18 6.0875 17.8531 5.73438 17.5594 5.44063C17.2656 5.14688 16.9125 5 16.5 5H11.7083L10.4792 3.77083L11.5417 2.70833L10.8333 2L8 4.83333L8.70833 5.54167L9.77083 4.47917L11 5.70833V7C11 7.4125 10.8531 7.76562 10.5594 8.05937C10.2656 8.35312 9.9125 8.5 9.5 8.5H6.95833C7.29167 8.69444 7.59028 8.91667 7.85417 9.16667C8.11806 9.41667 8.33333 9.69444 8.5 10H9.625C10.4156 10 11.0924 9.70833 11.6554 9.125C12.2185 8.54167 12.5 7.83333 12.5 7V6.5H16.5V10.0417ZM13 13C13 12.7222 13.0312 12.4618 13.0937 12.2187C13.1562 11.9757 13.2569 11.7361 13.3958 11.5H9C9.02778 11.7083 9.03125 11.9514 9.01042 12.2292C8.98958 12.5069 8.95139 12.7639 8.89583 13H13ZM15.995 16C15.165 16 14.4583 15.7067 13.875 15.12C13.2917 14.5333 13 13.825 13 12.995C13 12.165 13.2933 11.4583 13.88 10.875C14.4667 10.2917 15.175 10 16.005 10C16.835 10 17.5417 10.2948 18.125 10.8844C18.7083 11.474 19 12.1858 19 13.0198C19 13.8538 18.7067 14.559 18.12 15.1354C17.5333 15.7118 16.825 16 15.995 16ZM5.02083 16C3.89583 16 2.94444 15.606 2.16667 14.8179C1.38889 14.0297 1 13.0765 1 11.9583C1 10.8632 1.39049 9.92972 2.17146 9.15792C2.95229 8.38597 3.89674 8 5.00479 8C6.11271 8 7.05903 8.38597 7.84375 9.15792C8.62847 9.92972 9.02083 10.8632 9.02083 11.9583C9.02083 13.0765 8.63083 14.0297 7.85083 14.8179C7.07083 15.606 6.1275 16 5.02083 16Z" fill="var(--fill-0, #1C1B1F)"/>
</g>
</g>
</svg>
