<svg width="656" height="120" viewBox="0 0 656 120" fill="none" xmlns="http://www.w3.org/2000/svg">
<path fill-rule="evenodd" clip-rule="evenodd" d="M641.408 96.276V94.48H642.56C643.188 94.48 644.044 94.528 644.044 95.296C644.044 96.128 643.604 96.276 642.86 96.276H641.408ZM641.408 97.536H642.176L643.964 100.672H645.924L643.948 97.408C644.968 97.332 645.808 96.848 645.808 95.472C645.808 93.764 644.628 93.212 642.636 93.212H639.752V100.672H641.408V97.536ZM649.8 96.952C649.8 92.572 646.396 90.032 642.6 90.032C638.78 90.032 635.38 92.572 635.38 96.952C635.38 101.332 638.78 103.884 642.6 103.884C646.392 103.884 649.8 101.332 649.8 96.952ZM647.72 96.952C647.72 100.144 645.372 102.288 642.6 102.288V102.264C639.748 102.288 637.444 100.144 637.444 96.952C637.444 93.764 639.752 91.628 642.6 91.628C645.376 91.628 647.72 93.764 647.72 96.952Z" fill="black"/>
<path fill-rule="evenodd" clip-rule="evenodd" d="M385.496 22.828L385.504 101.468H407.712V22.828H385.496ZM210.788 22.724V101.468H233.2V40.344L250.68 40.4C256.428 40.4 260.4 41.78 263.172 44.736C266.688 48.48 268.12 54.512 268.12 65.556V101.468H289.828V57.96C289.828 26.908 270.036 22.72 250.672 22.72H210.792L210.788 22.724ZM421.256 22.832V101.468H457.28C476.472 101.468 482.736 98.276 489.508 91.12C494.3 86.096 497.392 75.064 497.392 63.012C497.392 51.96 494.772 42.1 490.204 35.96C481.976 24.98 470.124 22.832 452.424 22.832H421.256ZM443.288 39.952H452.836C466.688 39.952 475.648 46.176 475.648 62.316C475.648 78.464 466.688 84.684 452.836 84.684H443.288V39.952ZM353.476 22.832L334.94 85.152L317.18 22.836L293.208 22.832L318.568 101.468H350.58L376.144 22.832H353.476ZM507.728 101.468H529.94V22.836L507.72 22.832L507.728 101.468ZM569.984 22.86L538.972 101.44H560.872L565.78 87.552H602.48L607.124 101.44H630.9L599.652 22.856L569.984 22.86ZM584.4 37.2L597.856 74.016H570.524L584.4 37.2Z" fill="black"/>
<path fill-rule="evenodd" clip-rule="evenodd" d="M67.556 35.94V25.12C68.604 25.04 69.668 24.988 70.748 24.952C100.348 24.024 119.768 50.388 119.768 50.388C119.768 50.388 98.792 79.516 76.304 79.516C73.332 79.528 70.376 79.056 67.556 78.116V45.3C79.076 46.692 81.396 51.78 88.324 63.332L103.732 50.34C103.732 50.34 92.484 35.588 73.524 35.588C71.464 35.588 69.492 35.732 67.556 35.94ZM67.556 0.187988V16.36C68.616 16.276 69.68 16.208 70.748 16.168C111.908 14.784 138.728 49.928 138.728 49.928C138.728 49.928 107.928 87.384 75.836 87.384C72.896 87.384 70.14 87.112 67.556 86.652V96.644C69.768 96.924 72.06 97.092 74.452 97.092C104.312 97.092 125.908 81.844 146.82 63.792C150.288 66.568 164.484 73.324 167.4 76.284C147.516 92.924 101.18 106.344 74.908 106.344C72.452 106.336 70 106.208 67.556 105.96V120H181.056V0.187988H67.556ZM67.556 78.116V86.652C39.936 81.732 32.268 53.016 32.268 53.016C32.268 53.016 45.532 38.32 67.556 35.94V45.3L67.512 45.296C55.952 43.908 46.924 54.708 46.924 54.708C46.924 54.708 51.984 72.884 67.556 78.116ZM18.5 51.772C18.5 51.772 34.868 27.612 67.556 25.12V16.352C31.352 19.26 0 49.92 0 49.92C0 49.92 17.756 101.252 67.556 105.952V96.644C31.012 92.048 18.5 51.772 18.5 51.772Z" fill="#76B900"/>
</svg>
